# xmcd
#
# Track frame offsets:
#   150
#   21623
#   40877
#   58052
#   74808
#   89875
#   105128
#   121809
#   138347
#   152560
#   171653
#   188928
#   210454
#   226040
#   241471
#   259694
#   276571
#   293965
#   310591
#   326725
#
# Disc length: 4592 seconds
#
# Revision: 0
# Processed by: cddbd v1.5.1PL2 Copyright (c) Steve Scherf et al.
# Submitted via: GXTranscoder 2.0.1939
#
DISCID=3211ee14
DTITLE=ttre - T44
DYEAR=1900
DGENRE=Children's Music
TTITLE0=T 01
TTITLE1=T 02
TTITLE2=T 03
TTITLE3=T 04
TTITLE4=T 05
TTITLE5=T 06
TTITLE6=T 07
TTITLE7=T 08
TTITLE8=T 09
TTITLE9=T 10
TTITLE10=T 11
TTITLE11=T 12
TTITLE12=T 13
TTITLE13=T 14
TTITLE14=T 15
TTITLE15=T 16
TTITLE16=T 17
TTITLE17=T 18
TTITLE18=T 19
TTITLE19=T 20
EXTD=
EXTT0=
EXTT1=
EXTT2=
EXTT3=
EXTT4=
EXTT5=
EXTT6=
EXTT7=
EXTT8=
EXTT9=
EXTT10=
EXTT11=
EXTT12=
EXTT13=
EXTT14=
EXTT15=
EXTT16=
EXTT17=
EXTT18=
EXTT19=
PLAYORDER=
